# xmcd CD database file
#
# Track frame offsets:
#	150
#	18321
#	44088
#	66339
#	85865
#	113059
#	138508
#	166341
#	190779
#	212593
#	242981
#
# Disc length: 3567 seconds
#
# Revision: 0
# Processed by: cddbd v1.5.2PL0 Copyright (c) Steve Scherf et al.
# Submitted via: CDex 1.51
#
DISCID=9a0ded0b
DTITLE=Bill Coon and Ron Peters - No Boundaries
DYEAR=2007
DGENRE=Jazz
TTITLE0=There is no greater love
TTITLE1=Footprints
TTITLE2=Samba Lexa
TTITLE3=Bernie's Tune
TTITLE4=Path to Nowhere
TTITLE5=SC Blues
TTITLE6=Stairway to the Stars
TTITLE7=Yesterdays
TTITLE8=Emily
TTITLE9=How Insensitive
TTITLE10=Mr Hall
EXTD=YEAR: 2007
EXTT0=
EXTT1=
EXTT2=
EXTT3=
EXTT4=
EXTT5=
EXTT6=
EXTT7=
EXTT8=
EXTT9=
EXTT10=
PLAYORDER=
